<?xml version="1.0" encoding="UTF-8"?><svg id="Layer_3" xmlns="http://www.w3.org/2000/svg" viewBox="0 0 1080 1080"><defs><style>.cls-1,.cls-2{fill:#043866;}.cls-3{fill:#97bd28;}.cls-4{fill:#23a8c6;}.cls-2{font-family:MyriadPro-Regular, 'Myriad Pro';font-size:134.68px;}.cls-5{letter-spacing:-.07em;}</style></defs><path class="cls-3" d="M87.58,406.41c19.43-7.56,37.97-4.89,45.92,5.71,.89,1.19,6.26,8.34,3.97,15.14-3.75,11.14-22.94,6.15-35,20.35-9.66,11.38-7.48,26.53-7.2,28.3,1.77,11.1,9.23,23.63,20.6,27.3,10.81,3.49,15.15-4.25,28.79-2.23,11.16,1.65,26.15,9.46,28.3,21.84,2.8,16.18-17.29,34.52-30.28,32.27-13.54-2.35-10.58-25.55-32.77-38.23-8.69-4.96-17.58-6.24-31.28-8.19-18.76-2.68-25.17,3.78-31.52-1.24-9.22-7.29-9.73-29.42,.5-40.46,11.1-11.99,28.67-4.23,34.5-15.39,3.73-7.14-2.12-12.88,.5-29.04,1.14-7.06,3.33-12.61,4.96-16.13Z"/><path class="cls-1" d="M135.48,450.84c-11.37-4.5-29.68,1.59-35,14.89-.37,.92-4.33,11.25,.99,18.62,1.82,2.52,5.96,6.41,37.73,8.44,16.45,1.05,18.93,.24,24.08,2.98,12.29,6.54,16.09,20.72,16.88,24.08,.41,1.73,4.25,19.24-5.96,32.02-10.33,12.93-23.51,6.57-34.25,17.87-11.19,11.76-14.85,37.49-.99,50.39,15.62,14.54,45.96,5.76,53.37-8.69,8.01-15.63-14.21-31.25-6.21-49.89,7.11-16.55,28.04-12.18,37.23-31.28,5.84-12.13,5.05-29.78-3.72-37.48-8.13-7.14-16.85-.22-39.47-6.95-6.95-2.07-14.65-4.36-22.59-10.43-14.16-10.82-11.95-20.56-22.09-24.57Z"/><path class="cls-4" d="M181.88,435.7c-14.35-.47-30.3,13.09-29.54,24.33,.8,11.72,19.62,18.67,20.85,19.11,15.56,5.55,22.21-2.56,35.74,2.73,10.73,4.19,21.38,15.08,22.59,27.8,1.76,18.52-17.28,32.98-19.61,34.75-9.41,7.15-14.53,5.72-17.87,11.91-5.24,9.72,.13,26.7,12.41,35,11.8,7.97,29.61,7.68,36.24-.74,9.22-11.71-10.74-29.52-1.99-49.89,6.23-14.49,19.07-11.84,25.82-27.8,5.84-13.83,3.45-32.98-6.95-41.2-8.65-6.84-15.23-.11-30.78-4.22-26.04-6.88-28.1-31.15-46.91-31.77Z"/><text class="cls-2" transform="translate(324.23 555.28)"><tspan class="cls-5" x="0" y="0">T</tspan><tspan x="57.37" y="0">ech Health</tspan></text></svg>